<svg xmlns="http://www.w3.org/2000/svg" viewBox="0 0 207.87 341.29"><defs><style>.cls-1{fill:#a8754e;}.cls-1,.cls-4{stroke:#703a11;}.cls-1,.cls-10,.cls-12,.cls-2,.cls-4,.cls-5,.cls-6,.cls-7,.cls-8{stroke-miterlimit:10;}.cls-2{fill:#efb466;}.cls-2,.cls-5,.cls-6,.cls-7{stroke:#f4b11b;}.cls-3{fill:#703a11;}.cls-12,.cls-4,.cls-8{fill:none;}.cls-5{fill:#fff;}.cls-6{fill:#fff5ee;}.cls-7{fill:#ead9c5;}.cls-8{stroke:#995317;}.cls-9{fill:#995317;}.cls-10{fill:#f4c790;stroke:#f0d59e;}.cls-11{fill:#99341a;}.cls-12{stroke:#99341a;}</style></defs><g id="Capa_4" data-name="Capa 4"><rect class="cls-1" x="0.5" y="0.63" width="206.87" height="340.16"/><rect class="cls-2" x="12.92" y="10.71" width="180.74" height="319.99"/><path class="cls-3" d="M47.24,324.74,52,322a18.17,18.17,0,0,0-2.46-5.83l-5.32,1.39-1.86-1.82,1.42-5.24a18.86,18.86,0,0,0-5.93-2.42l-2.76,4.69H32.48l-2.76-4.69a18.61,18.61,0,0,0-5.92,2.42l1.41,5.24-1.85,1.82L18,316.19A18.17,18.17,0,0,0,15.58,322l4.76,2.72v2.58L15.58,330A18.22,18.22,0,0,0,18,335.88l5.32-1.4,1.85,1.83-1,3.85H32l.53-.89H35.1l.53.89h7.79l-1.05-3.85,1.86-1.83,5.32,1.4A18.22,18.22,0,0,0,52,330l-4.77-2.72Zm-13.45,11.6A10.31,10.31,0,1,1,44.26,326,10.39,10.39,0,0,1,33.79,336.34Z" transform="translate(4.72 0.63)"/><path class="cls-3" d="M22,337l-5.67,1.09L12.92,332l3.89-4.19a31.46,31.46,0,0,0-3.39-3.44l-4.37,3.71L3,324.53,4.26,319A30.22,30.22,0,0,0,0,317.75l-2,5.34h-.2v4.43a19.79,19.79,0,0,1,14.62,12.65H23A28.88,28.88,0,0,0,22,337Z" transform="translate(4.72 0.63)"/><path class="cls-3" d="M201.88,311.82a12.11,12.11,0,0,0-1.9-5.58l-7.39.34-2.23-2.5,1.37-7a12.55,12.55,0,0,0-5.33-2.6l-5.22,5.14-3.42-.25-4.21-5.89a14.09,14.09,0,0,0-6,1.87l.4,7.08-2.61,2.14L158,303.34a11.28,11.28,0,0,0-2.64,5l5.34,5-.26,3.28-6,4.53a8.83,8.83,0,0,0,1.61,4.73l7.56.13,2.23,2.5-1.11,7.14a11.26,11.26,0,0,0,5,2.44L175,333l3.42.25,3.71,6.05a17.5,17.5,0,0,0,6.66-2.09l-.58-7,2.6-2.14,7.36,1.23a13.62,13.62,0,0,0,2.93-5.53l-5.62-4.5.26-3.28ZM177.05,329.4a13.31,13.31,0,0,1-12.59-14.11c.58-7.23,7.17-12.64,14.71-12.08a13.33,13.33,0,0,1,12.6,14.11C191.18,324.55,184.6,330,177.05,329.4Z" transform="translate(4.72 0.63)"/><path class="cls-3" d="M178.65,309.72a6.8,6.8,0,0,0-7.4,6.07,6.69,6.69,0,0,0,6.33,7.1,6.81,6.81,0,0,0,7.4-6.07A6.7,6.7,0,0,0,178.65,309.72Zm-.9,11.06a4.54,4.54,0,0,1-4.3-4.82,4.62,4.62,0,0,1,5-4.13,4.55,4.55,0,0,1,4.31,4.82A4.63,4.63,0,0,1,177.75,320.78Z" transform="translate(4.72 0.63)"/><polygon class="cls-3" points="186.41 312.03 184.41 311.15 188.04 303.55 190.05 304.43 186.41 312.03"/><polygon class="cls-3" points="177.63 330.41 175.62 329.53 179.25 321.93 181.26 322.81 177.63 330.41"/><polygon class="cls-3" points="177.68 313.55 176.76 315.47 168.83 311.99 169.75 310.06 177.68 313.55"/><polygon class="cls-3" points="196.83 321.98 195.91 323.9 187.99 320.41 188.91 318.49 196.83 321.98"/><polygon class="cls-3" points="186.41 312.03 184.41 311.15 188.04 303.55 190.05 304.43 186.41 312.03"/><polygon class="cls-3" points="177.63 330.41 175.62 329.53 179.25 321.93 181.26 322.81 177.63 330.41"/><polygon class="cls-3" points="177.68 313.55 176.76 315.47 168.83 311.99 169.75 310.06 177.68 313.55"/><polygon class="cls-3" points="196.83 321.98 195.91 323.9 187.99 320.41 188.91 318.49 196.83 321.98"/><polyline class="cls-4" points="62.42 340.79 48.14 340.79 40.35 340.79 36.67 340.79 28.89 340.79 27.68 340.79 17.16 340.79 2.53 340.79 2.53 328.14 2.53 323.71 2.53 313.1"/><path class="cls-3" d="M197.83,34.36c-16.94,0-30.67-13.17-30.67-29.42a27.73,27.73,0,0,1,.46-5l-19.81,0-.22,7.34,8.31,1c.1,1.22.26,2.42.47,3.6l-7.8,2.9,2.11,7.06,8.21-1.5c.48,1.12,1,2.22,1.6,3.29l-6.52,5,4.25,6.11,7.36-3.82c.81.92,1.65,1.81,2.55,2.67l-4.62,6.7,6,4.58L175.28,39a40,40,0,0,0,3.82,2.06l-2.16,7.76,7.17,2.53,3.6-7.25a43.72,43.72,0,0,0,5.53.94l.77,8h7.65l.76-8,.23,0V34A30.64,30.64,0,0,1,197.83,34.36Z" transform="translate(4.72 0.63)"/><path class="cls-3" d="M199.13,16.48A13.07,13.07,0,0,1,185.8,3.69,12.43,12.43,0,0,1,186.37,0h-.83l-12.65,0a24.56,24.56,0,0,0-.29,3.76c0,14.06,11.88,25.45,26.53,25.45a25.59,25.59,0,0,0,3.52-.23V16A13.59,13.59,0,0,1,199.13,16.48Z" transform="translate(4.72 0.63)"/><polyline class="cls-4" points="152.53 0.5 172.34 0.55 176.54 0.56 177.62 0.56 190.26 0.59 191.1 0.59 207.37 0.63 207.37 16.66 207.37 17.49 207.37 29.54 207.37 30.59 207.37 34.62 207.37 45.65 207.37 54.32"/><rect class="cls-5" x="21.61" y="51.08" width="163.34" height="57.74" rx="11.19"/><rect class="cls-6" x="21.61" y="114.44" width="163.34" height="208.85" rx="11.19"/><rect class="cls-7" x="21.61" y="21.58" width="163.34" height="23.84" rx="6.19"/><path class="cls-8" d="M38.43,102.36a10,10,0,0,1-2.28.26,10.22,10.22,0,0,1-9.26-14.23" transform="translate(4.72 0.63)"/><path class="cls-8" d="M31.2,83.53a10,10,0,0,1,10.56.41,10.29,10.29,0,0,1,4,11.43,9.81,9.81,0,0,1-.58,1.51" transform="translate(4.72 0.63)"/><polygon class="cls-9" points="40.05 93.47 31.03 83.45 41.29 92.39 40.05 93.47"/><polygon class="cls-9" points="43.86 83.11 41.8 88.46 42.3 82.6 43.86 83.11"/><polygon class="cls-9" points="50.04 88.81 44.66 90.61 49.44 87.26 50.04 88.81"/><polygon class="cls-9" points="50.77 94.54 45.18 93.56 50.96 92.89 50.77 94.54"/><polygon class="cls-9" points="38.94 103 40.57 97.51 40.53 103.39 38.94 103"/><polygon class="cls-9" points="32.69 98.76 37.54 95.8 33.61 100.13 32.69 98.76"/><polygon class="cls-9" points="30.79 92.22 36.46 92.5 30.81 93.88 30.79 92.22"/><path class="cls-10" d="M112.78,58.68c-1-3.42,10.15,0,10.15,0s1.13,3.81-5.07,5.22c-2.08-.83-4.94-2.16-5.1-4.14" transform="translate(4.72 0.63)"/><path class="cls-10" d="M112.36,71.8c.35-1,10.2-.28,10.65-1.57s0,4,0,4l-9.8.17" transform="translate(4.72 0.63)"/><path class="cls-11" d="M126.22,97.79c0,3.24-3.2,5.87-7.14,5.87s-7.14-2.63-7.14-5.87,3.2,0,7.14,0S126.22,94.55,126.22,97.79Z" transform="translate(4.72 0.63)"/><path class="cls-8" d="M117.83,64.44h0c-1.56-.44-5.49-2.76-5.47-5.39V55.23a.89.89,0,0,1,.9-.89h9.44a.61.61,0,0,1,.61.6v4.11C123.69,61.56,120,64.14,117.83,64.44Z" transform="translate(4.72 0.63)"/><path class="cls-8" d="M117.85,64.44h0c.92.06,4.88,2.53,5.47,5.39v4.06a.66.66,0,0,1-.66.65h-8.91a1.37,1.37,0,0,1-1.38-1.36V69.83C112.6,67.19,116.94,64.75,117.85,64.44Z" transform="translate(4.72 0.63)"/><path class="cls-9" d="M31,58.18a4.94,4.94,0,0,1,2.07-1.6,6.66,6.66,0,0,1,2.6-.55,6.5,6.5,0,0,1,2.62.5,5,5,0,0,1,2.11,1.54c-.87-.15-1.65-.3-2.42-.38a17.73,17.73,0,0,0-2.29-.11,19.56,19.56,0,0,0-2.28.16C32.64,57.85,31.86,58,31,58.18Z" transform="translate(4.72 0.63)"/><path class="cls-9" d="M35.7,59.92a8,8,0,0,1-.59-3.08,7.93,7.93,0,0,1,.11-1.54,5,5,0,0,1,.48-1.54,5,5,0,0,1,.48,1.54,7.93,7.93,0,0,1,.11,1.54A8,8,0,0,1,35.7,59.92Z" transform="translate(4.72 0.63)"/><path class="cls-9" d="M31,70.7c.86.17,1.64.33,2.41.44a19.59,19.59,0,0,0,2.28.17A22.21,22.21,0,0,0,38,71.2c.77-.09,1.55-.23,2.42-.39a5.1,5.1,0,0,1-2.11,1.55,6.67,6.67,0,0,1-2.62.49,6.49,6.49,0,0,1-2.6-.55A4.94,4.94,0,0,1,31,70.7Z" transform="translate(4.72 0.63)"/><path class="cls-9" d="M35.7,69A8.06,8.06,0,0,1,36.29,72a7.93,7.93,0,0,1-.11,1.54,5.13,5.13,0,0,1-.48,1.55,5.13,5.13,0,0,1-.48-1.55A7.93,7.93,0,0,1,35.11,72,8.06,8.06,0,0,1,35.7,69Z" transform="translate(4.72 0.63)"/><path class="cls-9" d="M29.35,69.19a4.72,4.72,0,0,1-1.62-2A6.55,6.55,0,0,1,27.67,62a5,5,0,0,1,1.56-2.08c-.16.86-.31,1.63-.4,2.39a17.2,17.2,0,0,0-.11,2.25,19.09,19.09,0,0,0,.17,2.25C29,67.57,29.16,68.34,29.35,69.19Z" transform="translate(4.72 0.63)"/><path class="cls-9" d="M31.11,64.56a8.27,8.27,0,0,1-3.13.59,8.34,8.34,0,0,1-1.57-.1,5.22,5.22,0,0,1-1.56-.49,5.49,5.49,0,0,1,1.56-.48A8.34,8.34,0,0,1,28,64,8.45,8.45,0,0,1,31.11,64.56Z" transform="translate(4.72 0.63)"/><path class="cls-9" d="M42.05,69.19c.19-.85.35-1.62.46-2.37a19.09,19.09,0,0,0,.17-2.25,17.2,17.2,0,0,0-.11-2.25c-.09-.76-.24-1.53-.4-2.39A5,5,0,0,1,43.73,62a6.55,6.55,0,0,1-.06,5.16A4.72,4.72,0,0,1,42.05,69.19Z" transform="translate(4.72 0.63)"/><path class="cls-9" d="M40.29,64.56A8.45,8.45,0,0,1,43.42,64a8.34,8.34,0,0,1,1.57.1,5.49,5.49,0,0,1,1.56.48,5.22,5.22,0,0,1-1.56.49,9.55,9.55,0,0,1-4.7-.49Z" transform="translate(4.72 0.63)"/><ellipse class="cls-9" cx="40.42" cy="65.19" rx="0.85" ry="0.83"/></g><g id="Capa_6" data-name="Capa 6"><path class="cls-8" d="M119.52,103.76h-.15c-6.71-.09-9.5-7.28-4.27-10.8l1.53-1,.72-4.23,3,0,.85,4,2.22,1.31c5.5,3.24,3,10.6-3.78,10.69Z" transform="translate(4.72 0.63)"/><path class="cls-8" d="M120.92,85.75h-4l-1.07-1.38a2.76,2.76,0,0,1,3-2.48h0a2.77,2.77,0,0,1,3,2.48Z" transform="translate(4.72 0.63)"/><rect class="cls-12" x="121.6" y="87.18" width="4.19" height="0.43"/></g></svg>