<svg xmlns="http://www.w3.org/2000/svg" viewBox="0 0 204.43 341.98"><defs><style>.cls-1,.cls-8{fill:#995317;}.cls-1,.cls-4{stroke:#703a11;}.cls-1,.cls-11,.cls-2,.cls-4,.cls-6,.cls-7,.cls-9{stroke-miterlimit:10;}.cls-2{fill:#efb466;}.cls-2,.cls-6{stroke:#f4b11b;}.cls-3{fill:#703a11;}.cls-11,.cls-4,.cls-7{fill:none;}.cls-5,.cls-6{fill:#efd5b9;}.cls-7{stroke:#995317;}.cls-9{fill:#f4c790;stroke:#f0d59e;}.cls-10{fill:#99341a;}.cls-11{stroke:#99341a;}</style></defs><g id="Capa_3" data-name="Capa 3"><path class="cls-1" d="M-1-.17V340l203-.24V-.41ZM175.65,261.05a9.56,9.56,0,0,1-9.56,9.56l-133.35-.24a9.56,9.56,0,0,1-9.57-9.56V60.37a9.56,9.56,0,0,1,9.57-9.56l133.35.24a9.56,9.56,0,0,1,9.56,9.56Z" transform="translate(1.91 0.91)"/><path class="cls-2" d="M9.22,9.91v320l180.39.24v-320ZM175.65,261.05a9.56,9.56,0,0,1-9.56,9.56l-133.35-.24a9.56,9.56,0,0,1-9.57-9.56V60.37a9.56,9.56,0,0,1,9.57-9.56l133.35.24a9.56,9.56,0,0,1,9.56,9.56Z" transform="translate(1.91 0.91)"/><path class="cls-3" d="M197.17,35c-17,0-30.86-13.17-30.86-29.42a27.73,27.73,0,0,1,.46-5L146.84.51l-.22,7.34,8.36,1q.17,1.83.48,3.6l-7.85,2.9,2.12,7.06,8.27-1.5c.48,1.12,1,2.22,1.6,3.29l-6.56,5,4.27,6.11,7.41-3.82c.82.92,1.67,1.81,2.57,2.67l-4.65,6.7,6,4.58,5.83-5.78a41.57,41.57,0,0,0,3.84,2.06l-2.17,7.76L183.37,52,187,44.75a44,44,0,0,0,5.57.94l.76,8H201l.77-8,.23,0v-11A30.93,30.93,0,0,1,197.17,35Z" transform="translate(1.91 0.91)"/><path class="cls-3" d="M198.35,17.12c-7.7,0-13.94-5.73-13.94-12.79A11.85,11.85,0,0,1,185,.6h-.87l-13.22,0a22.27,22.27,0,0,0-.31,3.76c0,14.06,12.42,25.45,27.74,25.45a27.82,27.82,0,0,0,3.67-.23V16.67A14.76,14.76,0,0,1,198.35,17.12Z" transform="translate(1.91 0.91)"/><path class="cls-3" d="M47.26,13.18,52,10.46a18.37,18.37,0,0,0-2.42-5.84L44.3,6,42.47,4.19l1-3.85H35.83l-.52.89H32.73L32.21.34H24.55l1,3.85L23.75,6l-5.24-1.4a18.37,18.37,0,0,0-2.42,5.84l4.69,2.72v2.58l-4.69,2.72a18.31,18.31,0,0,0,2.42,5.83l5.24-1.39,1.82,1.82L24.18,30A18.31,18.31,0,0,0,30,32.4l2.72-4.69h2.58L38,32.4A18.37,18.37,0,0,0,43.87,30l-1.4-5.24,1.83-1.82,5.24,1.39A18.31,18.31,0,0,0,52,18.48l-4.7-2.72Zm-2.93,1.29A10.31,10.31,0,1,1,34,4.16,10.31,10.31,0,0,1,44.33,14.47Z" transform="translate(1.91 0.91)"/><path class="cls-3" d="M23.35.34H13A19.58,19.58,0,0,1-1.41,13v4.43h.2l2,5.34a29.3,29.3,0,0,0,4.19-1.23L3.7,16l6-3.56L14,16.12a31,31,0,0,0,3.34-3.44L13.47,8.49l3.4-6.06,5.58,1.09A28.84,28.84,0,0,0,23.35.34Z" transform="translate(1.91 0.91)"/><path class="cls-3" d="M197.05,319.36a9.06,9.06,0,0,0-1.31-4l-5.12.25-1.55-1.8,1-5.06a8.48,8.48,0,0,0-3.69-1.88l-3.61,3.71-2.37-.18-2.92-4.25a9.39,9.39,0,0,0-4.13,1.35l.28,5.11-1.81,1.54-5.09-.88a8.07,8.07,0,0,0-1.83,3.6l3.69,3.63-.18,2.37-4.13,3.27a6.56,6.56,0,0,0,1.11,3.42l5.23.09,1.55,1.8-.77,5.16a7.64,7.64,0,0,0,3.47,1.76l3.65-3.69,2.37.18,2.57,4.36a11.82,11.82,0,0,0,4.61-1.5l-.41-5.07,1.81-1.54,5.09.88a10,10,0,0,0,2-4l-3.9-3.25.19-2.36Zm-17.19,12.69a9.48,9.48,0,1,1,10.19-8.72A9.47,9.47,0,0,1,179.86,332.05Z" transform="translate(1.91 0.91)"/><path class="cls-3" d="M181,317.84a4.77,4.77,0,1,0,4.39,5.13A4.77,4.77,0,0,0,181,317.84Zm-.62,8a3.24,3.24,0,1,1,3.49-3A3.24,3.24,0,0,1,180.34,325.83Z" transform="translate(1.91 0.91)"/><rect class="cls-3" x="182.87" y="312.98" width="1.53" height="6.04" transform="translate(150.37 -46.88) rotate(24.64)"/><rect class="cls-3" x="176.79" y="326.25" width="1.53" height="6.04" transform="translate(155.35 -43.13) rotate(24.64)"/><rect class="cls-3" x="173.2" y="316.57" width="1.53" height="6.04" transform="translate(-187.14 345.38) rotate(-65.36)"/><rect class="cls-3" x="186.46" y="322.66" width="1.53" height="6.04" transform="translate(-184.94 360.99) rotate(-65.36)"/><rect class="cls-3" x="182.87" y="312.98" width="1.53" height="6.04" transform="translate(150.37 -46.88) rotate(24.64)"/><rect class="cls-3" x="176.79" y="326.25" width="1.53" height="6.04" transform="translate(155.35 -43.13) rotate(24.64)"/><rect class="cls-3" x="173.2" y="316.57" width="1.53" height="6.04" transform="translate(-187.14 345.38) rotate(-65.36)"/><rect class="cls-3" x="186.46" y="322.66" width="1.53" height="6.04" transform="translate(-184.94 360.99) rotate(-65.36)"/><polyline class="cls-4" points="59.47 341.48 45.41 341.48 37.74 341.48 34.12 341.48 26.46 341.48 25.26 341.48 14.9 341.48 0.5 341.48 0.5 328.83 0.5 324.4 0.5 313.79"/><path class="cls-3" d="M6.38,296.18A37.63,37.63,0,0,1,44,333.81a36.68,36.68,0,0,1-.56,6.42l24.3.07.27-9.39-10.2-1.23c-.12-1.56-.32-3.09-.57-4.6l9.57-3.71-2.59-9-10.08,1.92q-.88-2.16-1.95-4.21l8-6.44L55,295.8l-9,4.88q-1.48-1.76-3.13-3.41l5.67-8.57-7.33-5.86-7.11,7.4a47.81,47.81,0,0,0-4.69-2.64L32,277.67l-8.8-3.23-4.41,9.27a52.36,52.36,0,0,0-6.79-1.2l-.94-10.23H1.69L.75,282.51l-.28,0v14.11A36,36,0,0,1,6.38,296.18Z" transform="translate(1.91 0.91)"/><path class="cls-3" d="M4.78,319.05a16.39,16.39,0,0,1,15.66,21.13h1l15.51,0a30.51,30.51,0,0,0,.36-4.81A32.55,32.55,0,0,0,4.78,302.86a30.69,30.69,0,0,0-4.31.29v16.48A15.68,15.68,0,0,1,4.78,319.05Z" transform="translate(1.91 0.91)"/><polyline class="cls-4" points="69.66 341.21 45.36 341.14 40.2 341.13 38.89 341.13 23.37 341.09 22.35 341.09 2.38 341.04 2.38 320.54 2.38 319.48 2.38 304.06 2.38 302.72 2.38 297.57 2.38 283.46 2.38 272.37"/><path class="cls-5" d="M170,44.88l-141.1-.23A5.69,5.69,0,0,1,23.17,39V23.57a5.69,5.69,0,0,1,5.69-5.69l141.1.23a5.69,5.69,0,0,1,5.69,5.69V39.19A5.69,5.69,0,0,1,170,44.88Z" transform="translate(1.91 0.91)"/><path class="cls-6" d="M167.17,325l-135.51-.24a8.49,8.49,0,0,1-8.49-8.48V285a8.48,8.48,0,0,1,8.49-8.48l135.51.23a8.49,8.49,0,0,1,8.48,8.49v31.23A8.48,8.48,0,0,1,167.17,325Z" transform="translate(1.91 0.91)"/><path class="cls-7" d="M84,308.87a6.14,6.14,0,0,1-1.49.18,6.71,6.71,0,0,1-6.61-6.8,7,7,0,0,1,.53-2.68" transform="translate(1.91 0.91)"/><path class="cls-7" d="M79.28,296.33a6.45,6.45,0,0,1,6.93.27,6.89,6.89,0,0,1,2.65,7.62,7.09,7.09,0,0,1-.38,1" transform="translate(1.91 0.91)"/><polygon class="cls-8" points="83.9 303.44 77.98 296.76 84.72 302.72 83.9 303.44"/><polygon class="cls-8" points="86.4 296.54 85.05 300.1 85.38 296.19 86.4 296.54"/><polygon class="cls-8" points="90.46 300.33 86.93 301.54 90.06 299.3 90.46 300.33"/><polygon class="cls-8" points="90.94 304.15 87.27 303.5 91.06 303.05 90.94 304.15"/><polygon class="cls-8" points="83.17 309.79 84.24 306.13 84.22 310.05 83.17 309.79"/><polygon class="cls-8" points="79.07 306.96 82.26 304.99 79.68 307.88 79.07 306.96"/><polygon class="cls-8" points="77.83 302.61 81.54 302.79 77.84 303.71 77.83 302.61"/><path class="cls-8" d="M38,297.71a3.1,3.1,0,0,1,1.41-1.32,4.32,4.32,0,0,1,3.78,0,3.14,3.14,0,0,1,1.45,1.27l-1.76-.12c-.54,0-1,0-1.57,0l-1.56.06Z" transform="translate(1.91 0.91)"/><path class="cls-8" d="M41.3,299a4.37,4.37,0,0,1-.59-2.21,4.55,4.55,0,0,1,.1-1.1,3.18,3.18,0,0,1,.49-1.11,3.15,3.15,0,0,1,.48,1.11,4.57,4.57,0,0,1,.11,1.1A4.47,4.47,0,0,1,41.3,299Z" transform="translate(1.91 0.91)"/><path class="cls-8" d="M38,306.67l1.75.16,1.56.06c.52,0,1,0,1.57,0l1.76-.11A3.19,3.19,0,0,1,43.17,308a4.38,4.38,0,0,1-1.89.41,4.27,4.27,0,0,1-1.89-.45A3.1,3.1,0,0,1,38,306.67Z" transform="translate(1.91 0.91)"/><path class="cls-8" d="M41.3,305.43a4.74,4.74,0,0,1,.48,3.31,3.15,3.15,0,0,1-.48,1.11,3.18,3.18,0,0,1-.49-1.11,4.51,4.51,0,0,1-.1-1.1A4.37,4.37,0,0,1,41.3,305.43Z" transform="translate(1.91 0.91)"/><path class="cls-8" d="M36.81,305.6a3.14,3.14,0,0,1-1.31-1.41,4.27,4.27,0,0,1-.45-1.89,4.45,4.45,0,0,1,.41-1.9A3.22,3.22,0,0,1,36.73,299l-.11,1.76c0,.54,0,1,0,1.56s0,1,.06,1.56Z" transform="translate(1.91 0.91)"/><path class="cls-8" d="M38.06,302.28a4.47,4.47,0,0,1-2.21.59,4.19,4.19,0,0,1-1.11-.11,3,3,0,0,1-1.1-.48,3,3,0,0,1,1.1-.48,4.19,4.19,0,0,1,1.11-.11A4.37,4.37,0,0,1,38.06,302.28Z" transform="translate(1.91 0.91)"/><path class="cls-8" d="M45.78,305.6l.15-1.76c0-.53.06-1,.07-1.56s0-1,0-1.56L45.86,299a3.16,3.16,0,0,1,1.27,1.44,4.39,4.39,0,0,1,0,3.79A3.14,3.14,0,0,1,45.78,305.6Z" transform="translate(1.91 0.91)"/><path class="cls-8" d="M44.54,302.28a4.34,4.34,0,0,1,2.21-.59,4.15,4.15,0,0,1,1.1.11,2.87,2.87,0,0,1,1.1.48,2.87,2.87,0,0,1-1.1.48,4.15,4.15,0,0,1-1.1.11A4.44,4.44,0,0,1,44.54,302.28Z" transform="translate(1.91 0.91)"/><circle class="cls-8" cx="43.21" cy="303.19" r="0.6"/><path class="cls-9" d="M114.19,297.71c-.74-2.6,7.62,0,7.62,0s.85,2.91-3.8,4c-1.56-.63-3.71-1.64-3.83-3.15" transform="translate(1.91 0.91)"/><path class="cls-9" d="M113.88,307.72c.27-.74,7.66-.21,8-1.2s0,3.08,0,3.08l-7.35.13" transform="translate(1.91 0.91)"/><path class="cls-7" d="M118,302.11h0c-1.17-.34-4.12-2.1-4.11-4.11v-2.92a.67.67,0,0,1,.68-.67h7.08a.46.46,0,0,1,.46.46V298C122.38,299.91,119.65,301.88,118,302.11Z" transform="translate(1.91 0.91)"/><path class="cls-7" d="M118,302.11h0c.69,0,3.66,1.92,4.11,4.11v3.09a.5.5,0,0,1-.5.5h-6.68a1,1,0,0,1-1-1v-2.55C114.06,304.2,117.32,302.34,118,302.11Z" transform="translate(1.91 0.91)"/><path class="cls-10" d="M156.7,305.64a4.34,4.34,0,0,1-8.68,0c0-2.39,1.94,0,4.34,0S156.7,303.25,156.7,305.64Z" transform="translate(1.91 0.91)"/><path class="cls-7" d="M152.42,310.05h-.09a4.48,4.48,0,0,1-2.64-8l.95-.76.44-3.13,1.88,0,.52,3,1.37,1a4.34,4.34,0,0,1-2.33,7.9Z" transform="translate(1.91 0.91)"/><path class="cls-7" d="M153.29,296.75h-2.45l-.67-1A1.83,1.83,0,0,1,152,293.9h0a1.83,1.83,0,0,1,1.83,1.83Z" transform="translate(1.91 0.91)"/><rect class="cls-11" x="152.7" y="298.25" width="2.59" height="0.32"/></g></svg>