<svg xmlns="http://www.w3.org/2000/svg" viewBox="0 0 204.7 341.29"><defs><style>.cls-1{fill:#a8754e;}.cls-1,.cls-4{stroke:#703a11;}.cls-1,.cls-11,.cls-2,.cls-4,.cls-5,.cls-6,.cls-7,.cls-9{stroke-miterlimit:10;}.cls-2{fill:#efb466;}.cls-2,.cls-5,.cls-6{stroke:#f4b11b;}.cls-3{fill:#703a11;}.cls-11,.cls-4,.cls-7{fill:none;}.cls-5{fill:#fff;}.cls-6{fill:#ead9c5;}.cls-7{stroke:#995317;}.cls-8{fill:#995317;}.cls-9{fill:#f4c790;stroke:#f0d59e;}.cls-10{fill:#99341a;}.cls-11{stroke:#99341a;}</style></defs><g id="Capa_1" data-name="Capa 1"><rect class="cls-1" x="0.5" y="0.63" width="203.7" height="340.16"/><rect class="cls-2" x="12.73" y="10.71" width="177.97" height="319.99"/></g><g id="Capa_10" data-name="Capa 10"><path class="cls-3" d="M48.67,324.74l4.7-2.72A18.31,18.31,0,0,0,51,316.19l-5.24,1.39-1.83-1.82,1.4-5.24a18.37,18.37,0,0,0-5.84-2.42l-2.72,4.69H34.14l-2.72-4.69a18.31,18.31,0,0,0-5.83,2.42L27,315.76l-1.82,1.82-5.24-1.39A18.31,18.31,0,0,0,17.5,322l4.69,2.72v2.58L17.5,330a18.37,18.37,0,0,0,2.42,5.84l5.24-1.4L27,336.31l-1,3.85h7.66l.52-.89h2.58l.52.89h7.67l-1-3.85,1.83-1.83,5.24,1.4A18.37,18.37,0,0,0,53.37,330l-4.7-2.72Zm-13.24,11.6A10.31,10.31,0,1,1,45.74,326,10.31,10.31,0,0,1,35.43,336.34Z" transform="translate(2.5 0.63)"/><path class="cls-3" d="M23.86,337l-5.58,1.09L14.88,332l3.83-4.19a31,31,0,0,0-3.34-3.44l-4.3,3.71-6-3.56L6.35,319a29.3,29.3,0,0,0-4.19-1.23l-2,5.34H0v4.43a19.58,19.58,0,0,1,14.4,12.65H24.76A28.84,28.84,0,0,0,23.86,337Z" transform="translate(2.5 0.63)"/><path class="cls-3" d="M201,311.82a12.3,12.3,0,0,0-1.87-5.58l-7.28.34-2.2-2.5,1.35-7a12.25,12.25,0,0,0-5.25-2.6l-5.13,5.14-3.37-.25-4.15-5.89a13.75,13.75,0,0,0-5.88,1.87l.39,7.08L165,304.56l-7.25-1.22a11.21,11.21,0,0,0-2.6,5l5.26,5-.26,3.28-5.88,4.53a8.89,8.89,0,0,0,1.58,4.73l7.44.13,2.2,2.5-1.1,7.14a11.06,11.06,0,0,0,4.94,2.44l5.19-5.11,3.37.25,3.65,6.05a17.08,17.08,0,0,0,6.56-2.09l-.58-7,2.57-2.14,7.25,1.23a13.77,13.77,0,0,0,2.88-5.53l-5.54-4.5.26-3.28ZM176.5,329.4a13.24,13.24,0,0,1-12.4-14.11,13.49,13.49,0,1,1,12.4,14.11Z" transform="translate(2.5 0.63)"/><path class="cls-3" d="M178.07,309.72a6.73,6.73,0,0,0-7.29,6.07,6.66,6.66,0,0,0,6.24,7.1,6.74,6.74,0,0,0,7.29-6.07A6.67,6.67,0,0,0,178.07,309.72Zm-.88,11.06A4.52,4.52,0,0,1,173,316a4.57,4.57,0,0,1,5-4.13,4.52,4.52,0,0,1,4.24,4.82A4.58,4.58,0,0,1,177.19,320.78Z" transform="translate(2.5 0.63)"/><polygon class="cls-3" points="183.56 312.03 181.59 311.15 185.17 303.55 187.14 304.43 183.56 312.03"/><polygon class="cls-3" points="174.91 330.41 172.94 329.53 176.52 321.93 178.49 322.81 174.91 330.41"/><polygon class="cls-3" points="174.96 313.55 174.06 315.47 166.25 311.99 167.16 310.06 174.96 313.55"/><polygon class="cls-3" points="193.83 321.98 192.92 323.9 185.12 320.41 186.02 318.49 193.83 321.98"/><polygon class="cls-3" points="183.56 312.03 181.59 311.15 185.17 303.55 187.14 304.43 183.56 312.03"/><polygon class="cls-3" points="174.91 330.41 172.94 329.53 176.52 321.93 178.49 322.81 174.91 330.41"/><polygon class="cls-3" points="174.96 313.55 174.06 315.47 166.25 311.99 167.16 310.06 174.96 313.55"/><polygon class="cls-3" points="193.83 321.98 192.92 323.9 185.12 320.41 186.02 318.49 193.83 321.98"/><polyline class="cls-4" points="61.47 340.79 47.41 340.79 39.74 340.79 36.12 340.79 28.46 340.79 27.26 340.79 16.9 340.79 2.5 340.79 2.5 328.14 2.5 323.71 2.5 313.1"/></g><g id="Capa_9" data-name="Capa 9"><path class="cls-3" d="M197,34.36c-16.68,0-30.2-13.17-30.2-29.42a27.73,27.73,0,0,1,.45-5l-19.5,0-.22,7.34,8.18,1c.1,1.22.26,2.42.46,3.6l-7.68,2.9,2.08,7.06,8.09-1.5c.47,1.12,1,2.22,1.57,3.29l-6.42,5L158,34.66l7.25-3.82c.8.92,1.63,1.81,2.51,2.67l-4.54,6.7,5.88,4.58L174.76,39a40.05,40.05,0,0,0,3.75,2.06l-2.12,7.76,7.06,2.53L187,44.11a42.78,42.78,0,0,0,5.45.94l.75,8h7.54l.75-8,.22,0V34A29.63,29.63,0,0,1,197,34.36Z" transform="translate(2.5 0.63)"/><path class="cls-3" d="M198.24,16.48A13,13,0,0,1,185.11,3.69,12.43,12.43,0,0,1,185.68,0h-.82l-12.46,0a24.56,24.56,0,0,0-.28,3.76c0,14.06,11.69,25.45,26.12,25.45a24.73,24.73,0,0,0,3.46-.23V16A13.13,13.13,0,0,1,198.24,16.48Z" transform="translate(2.5 0.63)"/><polyline class="cls-4" points="150.21 0.5 169.71 0.55 173.85 0.56 174.91 0.56 187.36 0.59 188.18 0.59 204.2 0.63 204.2 16.66 204.2 17.49 204.2 29.54 204.2 30.59 204.2 34.62 204.2 45.65 204.2 54.32"/></g><g id="Capa_2" data-name="Capa 2"><rect class="cls-5" x="21.29" y="51.08" width="160.84" height="57.74" rx="11.19"/><rect class="cls-5" x="21.29" y="114.44" width="160.84" height="208.85" rx="11.19"/><rect class="cls-6" x="21.29" y="21.58" width="160.84" height="23.84" rx="6.19"/></g><g id="Capa_3" data-name="Capa 3"><path class="cls-7" d="M40,102.36a9.74,9.74,0,0,1-2.24.26,10.07,10.07,0,0,1-9.93-10.2,10.57,10.57,0,0,1,.8-4" transform="translate(2.5 0.63)"/><path class="cls-7" d="M32.88,83.53a9.73,9.73,0,0,1,10.4.41,10.41,10.41,0,0,1,4,11.43,9.81,9.81,0,0,1-.58,1.51" transform="translate(2.5 0.63)"/><polygon class="cls-8" points="39.44 93.47 30.56 83.45 40.67 92.39 39.44 93.47"/><polygon class="cls-8" points="43.2 83.11 41.17 88.46 41.66 82.6 43.2 83.11"/><polygon class="cls-8" points="49.29 88.81 43.99 90.61 48.69 87.26 49.29 88.81"/><polygon class="cls-8" points="50 94.54 44.5 93.56 50.18 92.89 50 94.54"/><polygon class="cls-8" points="38.35 103 39.96 97.51 39.92 103.39 38.35 103"/><polygon class="cls-8" points="32.2 98.76 36.98 95.8 33.1 100.13 32.2 98.76"/><polygon class="cls-8" points="30.33 92.22 35.91 92.5 30.34 93.88 30.33 92.22"/></g><g id="Capa_5" data-name="Capa 5"><path class="cls-9" d="M113.21,58.68c-1-3.42,10,0,10,0s1.12,3.81-5,5.22c-2-.83-4.86-2.16-5-4.14" transform="translate(2.5 0.63)"/><path class="cls-9" d="M112.8,71.8c.35-1,10-.28,10.48-1.57s0,4,0,4l-9.64.17" transform="translate(2.5 0.63)"/></g><g id="Capa_7" data-name="Capa 7"><path class="cls-10" d="M126.44,97.79c0,3.24-3.14,5.87-7,5.87s-7-2.63-7-5.87,3.14,0,7,0S126.44,94.55,126.44,97.79Z" transform="translate(2.5 0.63)"/></g><g id="Capa_6" data-name="Capa 6"><path class="cls-7" d="M119.52,103.76h-.15c-6.71-.09-9.5-7.28-4.27-10.8l1.53-1,.72-4.23,3,0,.85,4,2.22,1.31c5.5,3.24,3,10.6-3.78,10.69Z" transform="translate(2.5 0.63)"/><path class="cls-7" d="M120.92,85.75h-4l-1.07-1.38a2.76,2.76,0,0,1,3-2.48h0a2.77,2.77,0,0,1,3,2.48Z" transform="translate(2.5 0.63)"/><rect class="cls-11" x="119.38" y="87.18" width="4.19" height="0.43"/></g><g id="Capa_4" data-name="Capa 4"><path class="cls-7" d="M118.19,64.44h0c-1.54-.44-5.41-2.76-5.39-5.39V55.23a.89.89,0,0,1,.89-.89H123a.6.6,0,0,1,.6.6v4.11C124,61.56,120.36,64.14,118.19,64.44Z" transform="translate(2.5 0.63)"/><path class="cls-7" d="M118.2,64.44h0c.91.06,4.8,2.53,5.39,5.39v4.06a.65.65,0,0,1-.65.65h-8.77a1.36,1.36,0,0,1-1.36-1.36V69.83C113,67.19,117.31,64.75,118.2,64.44Z" transform="translate(2.5 0.63)"/><path class="cls-8" d="M32.68,58.18a4.87,4.87,0,0,1,2-1.6A6.44,6.44,0,0,1,37.29,56a6.35,6.35,0,0,1,2.58.5,4.87,4.87,0,0,1,2.07,1.54c-.86-.15-1.63-.3-2.39-.38a17,17,0,0,0-2.25-.11,19,19,0,0,0-2.24.16C34.3,57.85,33.54,58,32.68,58.18Z" transform="translate(2.5 0.63)"/><path class="cls-8" d="M37.31,59.92a8.21,8.21,0,0,1-.59-3.08,7.93,7.93,0,0,1,.11-1.54,5.28,5.28,0,0,1,.48-1.54,5,5,0,0,1,.48,1.54,7.93,7.93,0,0,1,.11,1.54A8,8,0,0,1,37.31,59.92Z" transform="translate(2.5 0.63)"/><path class="cls-8" d="M32.68,70.7c.86.17,1.62.33,2.38.44a19.08,19.08,0,0,0,2.24.17,21.31,21.31,0,0,0,2.25-.11c.76-.09,1.53-.23,2.39-.39a4.87,4.87,0,0,1-2.07,1.54,6.35,6.35,0,0,1-2.58.5,6.28,6.28,0,0,1-2.57-.55A4.79,4.79,0,0,1,32.68,70.7Z" transform="translate(2.5 0.63)"/><path class="cls-8" d="M37.31,69A8.06,8.06,0,0,1,37.9,72a7.93,7.93,0,0,1-.11,1.54,5.13,5.13,0,0,1-.48,1.55,5.43,5.43,0,0,1-.48-1.55A7.93,7.93,0,0,1,36.72,72,8.25,8.25,0,0,1,37.31,69Z" transform="translate(2.5 0.63)"/><path class="cls-8" d="M31.05,69.19a4.92,4.92,0,0,1-1.6-2,6.48,6.48,0,0,1-.55-2.57A6.35,6.35,0,0,1,29.4,62a4.9,4.9,0,0,1,1.54-2.08c-.15.86-.3,1.63-.38,2.39a17.2,17.2,0,0,0-.11,2.25,19.06,19.06,0,0,0,.16,2.25C30.72,67.57,30.88,68.34,31.05,69.19Z" transform="translate(2.5 0.63)"/><path class="cls-8" d="M32.79,64.56a8,8,0,0,1-3.08.59,8,8,0,0,1-1.54-.1,5,5,0,0,1-1.54-.49,5.28,5.28,0,0,1,1.54-.48,8,8,0,0,1,1.54-.1A8.2,8.2,0,0,1,32.79,64.56Z" transform="translate(2.5 0.63)"/><path class="cls-8" d="M43.57,69.19c.17-.85.33-1.62.44-2.37a19.09,19.09,0,0,0,.17-2.25,21.58,21.58,0,0,0-.11-2.25c-.09-.76-.23-1.53-.39-2.39A4.9,4.9,0,0,1,45.22,62a6.58,6.58,0,0,1,0,5.15A4.76,4.76,0,0,1,43.57,69.19Z" transform="translate(2.5 0.63)"/><path class="cls-8" d="M41.83,64.56A8.24,8.24,0,0,1,44.91,64a7.92,7.92,0,0,1,1.54.1,5.43,5.43,0,0,1,1.55.48,5.16,5.16,0,0,1-1.55.49,7.92,7.92,0,0,1-1.54.1A8.06,8.06,0,0,1,41.83,64.56Z" transform="translate(2.5 0.63)"/><circle class="cls-8" cx="39.81" cy="65.19" r="0.83"/></g></svg>